<?xml version="1.0" standalone="no"?>
<!DOCTYPE svg PUBLIC "-//W3C//DTD SVG 20010904//EN"
 "http://www.w3.org/TR/2001/REC-SVG-20010904/DTD/svg10.dtd">
<svg version="1.0" xmlns="http://www.w3.org/2000/svg"
 width="875.000000pt" height="875.000000pt" viewBox="0 0 875.000000 875.000000"
 preserveAspectRatio="xMidYMid meet">
<metadata>
Created by potrace 1.11, written by Peter Selinger 2001-2013
</metadata>
<g transform="translate(0.000000,875.000000) scale(0.100000,-0.100000)"
fill="#000000" stroke="none">
<path d="M6100 7745 c-7 -8 -19 -15 -26 -15 -8 0 -14 -4 -14 -10 0 -5 -4 -9
-9 -7 -14 4 -129 -129 -119 -138 2 -3 18 -1 34 4 17 5 41 7 55 6 13 -1 37 -3
53 -4 56 -2 14 -16 -50 -16 l-63 0 -63 -61 c-35 -34 -77 -75 -94 -91 -26 -24
-31 -36 -29 -64 2 -19 4 -55 4 -82 1 -42 3 -46 19 -36 9 6 36 36 60 65 53 66
74 80 132 87 25 3 79 11 120 16 41 6 120 13 175 15 55 2 116 6 135 10 19 3 53
8 75 10 22 3 72 17 110 31 82 31 149 36 173 12 15 -16 15 -17 -1 -18 -9 -1
-23 -2 -29 -3 -8 -1 -12 -13 -10 -29 3 -26 1 -27 -50 -28 -29 -1 -67 -1 -84 0
-17 1 -60 -6 -95 -14 -68 -17 -91 -20 -165 -23 -37 -2 -45 -5 -42 -19 5 -25
45 -43 98 -43 25 -1 63 -8 85 -16 91 -34 192 -65 232 -70 46 -5 57 8 23 26
-11 6 -18 14 -16 18 12 20 -15 34 -67 35 -63 2 -71 7 -63 35 9 26 77 43 172
43 l72 0 0 32 c0 18 10 54 21 81 13 30 18 53 12 59 -5 5 -37 4 -82 -2 -82 -12
-285 -12 -309 0 -8 4 -32 1 -53 -6 -43 -15 -91 -25 -189 -39 -26 -4 -41 -1
-53 10 -17 18 -11 54 11 67 12 7 11 12 -2 32 -12 18 -13 28 -4 44 16 31 -3 61
-39 61 -25 0 -28 3 -23 25 5 28 -9 33 -28 10z"/>
<path d="M5955 7730 c-4 -6 -31 -9 -65 -6 -44 3 -60 0 -64 -10 -3 -8 1 -14 9
-14 22 0 55 -37 49 -54 -3 -8 -22 -20 -42 -27 -57 -18 -64 -27 -58 -76 6 -55
-11 -73 -67 -73 -48 0 -52 -3 -89 -48 -17 -21 -25 -40 -22 -55 17 -88 17 -92
-14 -116 -19 -14 -28 -29 -25 -38 16 -41 -50 -94 -124 -99 -23 -1 -70 -9 -105
-17 -35 -9 -85 -18 -111 -22 -26 -3 -77 -21 -112 -41 -36 -19 -65 -32 -65 -29
0 3 -11 -2 -24 -10 -13 -9 -39 -17 -57 -19 -33 -3 -104 -38 -162 -78 -22 -16
-37 -19 -72 -13 -37 5 -48 3 -67 -14 -29 -28 -69 -27 -87 1 -8 13 -13 47 -12
88 1 63 0 67 -33 96 -55 48 -72 55 -86 39 -17 -21 -57 -19 -69 3 -5 9 -7 30
-4 45 5 23 2 27 -18 27 -26 0 -106 -28 -127 -44 -13 -9 -13 -21 3 -96 11 -48
8 -78 -9 -101 -20 -29 -16 -28 -48 -7 -22 15 -28 15 -44 3 -24 -18 -56 -19
-99 -1 -19 8 -35 12 -35 7 0 -12 -72 -43 -111 -48 -59 -7 -86 37 -57 90 7 12
13 32 13 45 2 28 28 56 72 77 19 9 37 24 41 33 9 26 71 110 85 116 8 3 4 12
-12 26 -15 13 -30 18 -40 14 -9 -4 -59 -8 -111 -10 -52 -2 -106 -9 -119 -16
-13 -7 -33 -36 -46 -64 -29 -67 -58 -76 -86 -29 -23 38 -59 49 -89 28 -12 -8
-30 -13 -41 -10 -11 3 -23 -1 -27 -9 -14 -25 -63 -23 -105 3 l-39 25 -19 -21
c-20 -22 -24 -22 -124 -25 -33 0 -60 -5 -61 -11 -1 -23 -25 -91 -37 -105 -26
-33 -210 -29 -307 5 -21 7 -41 11 -44 7 -8 -7 -178 -4 -221 4 -69 13 -133 40
-193 80 -52 36 -72 44 -109 44 -29 0 -55 7 -74 21 -42 30 -79 98 -79 147 0 36
-4 44 -30 57 -18 10 -56 15 -105 15 l-76 0 2 -57 c1 -32 8 -67 16 -78 7 -12
11 -30 8 -40 -37 -157 -43 -173 -83 -224 -23 -29 -42 -63 -42 -74 0 -12 -9
-35 -20 -52 -24 -36 -25 -58 -5 -79 20 -20 39 -67 36 -91 -3 -22 -18 -35 -42
-35 -25 0 -117 72 -129 101 -17 40 -46 48 -109 32 -30 -8 -68 -12 -83 -9 -25
5 -28 3 -27 -22 3 -64 13 -84 48 -96 32 -10 50 -31 83 -95 11 -20 9 -26 -11
-42 -13 -11 -35 -19 -50 -19 l-26 0 3 -110 c2 -60 5 -110 8 -110 2 0 23 12 45
26 51 32 98 40 123 21 26 -19 15 -56 -24 -82 -16 -11 -30 -24 -30 -28 0 -10
-5 -15 -80 -100 -33 -38 -58 -72 -55 -77 2 -4 -11 -22 -31 -39 -31 -28 -34
-37 -28 -63 3 -17 15 -40 25 -52 11 -11 19 -25 19 -32 0 -28 28 -36 72 -21
178 63 302 88 322 66 17 -19 15 -50 -5 -70 -17 -17 -19 -26 -12 -43 6 -11 8
-30 6 -41 -3 -11 -7 -40 -9 -65 -3 -25 -7 -54 -8 -65 -2 -11 -4 -24 -5 -28 0
-4 -18 -15 -39 -23 -43 -18 -84 -53 -76 -65 3 -5 -4 -18 -14 -29 -24 -26 -18
-64 11 -78 35 -16 158 -42 169 -36 12 8 84 159 93 196 4 14 16 34 26 44 18 16
21 16 36 2 8 -9 15 -28 15 -42 1 -28 21 -51 37 -41 6 3 23 -1 39 -9 27 -14 31
-14 45 2 8 9 18 27 21 39 4 13 10 22 14 22 27 -4 31 4 27 62 -2 34 -9 67 -14
72 -6 6 -11 18 -11 27 0 9 -13 29 -29 44 -24 23 -29 36 -28 72 0 52 25 82 53
66 13 -7 31 -3 70 15 36 18 59 24 78 19 l27 -7 -6 -102 c-4 -56 -8 -119 -10
-140 -1 -20 4 -45 11 -55 7 -9 14 -24 14 -33 0 -32 24 -40 62 -20 19 11 53 24
74 30 33 9 46 22 81 79 62 98 107 193 96 201 -6 3 -13 16 -17 27 -5 16 1 28
22 46 16 13 27 29 24 36 -2 7 1 26 8 43 10 22 19 29 40 29 45 0 71 -41 105
-165 13 -44 35 -107 50 -140 15 -33 36 -89 46 -124 10 -35 24 -71 32 -80 7 -9
19 -29 25 -44 8 -18 18 -27 27 -24 25 10 37 -17 50 -123 3 -25 15 -58 27 -74
18 -25 20 -38 14 -105 -6 -70 -4 -80 20 -126 27 -50 58 -85 77 -85 6 0 25 -11
44 -26 30 -22 36 -24 60 -12 14 7 34 28 44 47 10 19 30 47 45 62 15 16 24 29
20 29 -5 0 -4 6 2 13 5 6 13 26 16 43 4 17 16 41 28 54 11 12 20 34 20 48 0
34 15 52 43 52 27 0 42 -30 55 -113 5 -34 13 -80 18 -102 5 -22 7 -51 6 -65
-5 -64 -5 -121 0 -335 4 -200 3 -232 -11 -247 -9 -10 -17 -36 -19 -59 -3 -33
0 -47 17 -62 17 -16 20 -27 15 -63 -5 -42 -10 -57 -61 -169 -13 -27 -36 -90
-53 -140 -16 -49 -37 -110 -46 -134 -11 -29 -14 -55 -10 -75 12 -51 11 -431
-1 -514 -6 -42 -17 -88 -25 -102 -7 -14 -12 -26 -11 -28 1 -1 0 -15 -3 -30 -4
-15 -8 -37 -11 -50 -2 -12 -11 -30 -20 -39 -23 -22 -31 -48 -40 -121 -7 -60
-6 -64 20 -88 24 -22 26 -29 20 -72 -7 -55 -62 -223 -98 -302 -14 -30 -29 -69
-32 -85 -4 -17 -17 -48 -30 -70 -12 -22 -35 -74 -50 -115 -15 -41 -32 -81 -38
-87 -5 -7 -6 -13 -2 -13 4 0 -9 -28 -28 -62 -21 -37 -35 -77 -36 -98 0 -19
-14 -68 -31 -109 -33 -79 -45 -131 -32 -131 17 0 149 49 197 73 28 13 75 30
105 37 30 7 76 19 101 27 55 16 75 10 95 -28 11 -23 21 -29 48 -29 30 0 74
-31 75 -54 1 -4 83 -10 183 -13 269 -7 278 -6 296 9 9 8 37 22 62 32 25 10 56
23 70 28 44 18 176 19 227 2 68 -23 164 -19 216 8 23 13 45 28 49 33 4 6 8 6
8 2 0 -12 60 32 60 44 0 6 -7 18 -16 26 -12 12 -14 27 -9 57 3 23 10 45 16 51
5 5 9 29 9 53 0 38 -2 43 -18 38 -50 -16 -128 127 -168 305 -2 11 -6 29 -9 41
-14 63 -17 95 -20 233 -2 83 -6 161 -9 175 -25 107 -29 288 -7 314 7 9 10 16
5 16 -4 0 2 10 14 23 11 12 34 48 51 80 34 65 88 120 140 143 19 9 42 25 51
37 10 12 28 22 41 22 13 1 50 11 81 23 67 25 159 24 220 -2 21 -9 39 -12 43
-7 10 17 47 7 62 -16 9 -13 22 -23 30 -23 7 0 25 -11 39 -26 22 -22 25 -31 20
-70 -3 -24 -7 -48 -10 -52 -2 -4 2 -34 10 -67 11 -48 13 -102 8 -265 -4 -113
-6 -223 -5 -245 2 -52 -23 -119 -65 -174 -24 -31 -31 -47 -23 -52 22 -13 4
-88 -28 -115 -15 -13 -32 -24 -38 -24 -5 0 -22 -24 -38 -53 -15 -28 -48 -74
-73 -101 -44 -46 -45 -49 -26 -62 32 -22 14 -94 -49 -197 -16 -27 -28 -51 -26
-54 5 -4 59 17 108 43 14 7 29 11 33 7 3 -3 6 3 6 15 0 33 1 35 22 65 24 34
60 53 118 62 61 9 106 24 118 38 15 18 63 242 64 300 1 29 -2 66 -5 82 -9 41
-19 124 -20 160 0 42 14 168 21 179 3 5 4 34 3 66 -1 31 5 72 12 91 16 38 15
90 -3 197 -6 41 -9 104 -7 140 3 37 3 74 -1 83 -8 20 -111 99 -129 99 -23 0
-63 23 -63 36 0 23 -35 35 -56 19 -21 -15 -72 -13 -211 10 -70 12 -87 19 -113
45 l-31 32 -37 -28 c-46 -35 -162 -151 -162 -163 0 -5 -3 -11 -8 -13 -4 -1
-23 -23 -42 -48 -19 -25 -40 -51 -47 -58 -7 -8 -26 -32 -42 -55 -16 -23 -37
-49 -48 -58 -47 -42 -48 -47 -46 -192 3 -145 17 -223 58 -312 26 -58 35 -97
40 -163 1 -26 8 -69 15 -97 7 -27 14 -75 16 -105 6 -92 15 -152 31 -210 8 -30
17 -64 19 -75 2 -11 9 -42 16 -70 7 -27 11 -54 10 -58 -1 -4 14 -5 33 -1 32 6
35 4 35 -18 0 -32 -45 -74 -75 -70 -13 2 -26 -2 -30 -7 -9 -16 -91 -13 -104 3
-8 10 -9 15 -1 18 7 2 6 15 -5 40 -19 47 -31 114 -34 193 -1 26 -4 35 -10 27
-4 -7 -7 -61 -6 -120 2 -111 -11 -161 -40 -163 -20 -2 -25 -3 -60 -18 -65 -28
-70 -29 -97 -15 -16 8 -28 22 -28 30 0 13 -11 15 -67 13 -61 -4 -68 -2 -71 16
-2 11 -1 17 3 13 4 -4 13 -1 20 6 8 7 41 19 74 26 57 12 77 29 51 45 -5 3 -17
32 -27 63 l-17 57 -11 -40 c-11 -37 -15 -40 -51 -43 -88 -6 -103 -22 -78 -82
19 -44 18 -55 -9 -85 -20 -24 -29 -26 -97 -26 -41 0 -77 -5 -81 -10 -3 -6 -23
-16 -44 -24 -38 -12 -40 -12 -69 18 -30 30 -31 33 -29 118 l1 87 -41 -23 c-42
-24 -178 -70 -230 -79 -15 -3 -35 -7 -45 -10 -10 -3 -46 -8 -80 -10 -35 -3
-70 -10 -77 -16 -8 -7 -24 -10 -35 -7 -17 4 -22 0 -27 -24 -3 -16 -11 -28 -17
-26 -17 6 -9 68 13 97 11 15 27 45 36 66 9 22 29 51 46 66 16 15 29 31 29 36
0 5 14 28 30 51 30 41 93 151 87 151 -2 0 3 35 10 78 15 81 17 127 11 257 -4
73 8 193 38 380 3 17 20 62 38 100 19 39 39 95 46 125 13 64 12 305 -2 400
-17 122 -17 138 7 271 2 14 9 38 14 52 6 15 8 27 6 27 -19 0 83 188 107 198 4
2 8 11 8 21 0 9 5 22 12 29 7 7 12 58 13 139 1 71 6 138 12 148 11 22 11 795
0 812 -4 6 -25 13 -49 16 -52 7 -72 32 -88 109 -6 31 -26 83 -45 114 -19 32
-35 67 -36 78 0 12 -2 30 -5 41 -2 11 -7 37 -10 58 -3 21 -7 46 -9 55 -2 9 -4
19 -4 22 -1 2 -5 0 -10 -5 -5 -6 -12 -35 -16 -65 -13 -113 -16 -134 -20 -140
-2 -3 0 -12 4 -18 6 -9 15 -10 34 -3 20 8 25 7 21 -2 -2 -7 -14 -14 -26 -14
-23 -2 -41 -16 -44 -35 -4 -27 -36 -184 -40 -200 -3 -10 -10 -18 -15 -18 -6 0
-7 5 -4 10 4 6 9 23 11 38 3 15 9 43 14 62 5 19 12 55 15 80 4 24 8 48 11 51
2 4 -5 18 -16 32 -11 14 -20 28 -20 31 0 2 -9 21 -21 40 l-20 35 -42 -16 c-78
-29 -161 -11 -229 49 -34 29 -98 151 -132 248 -25 75 -86 274 -90 298 -6 31
-23 33 -97 6 -168 -60 -219 -95 -219 -149 0 -17 7 -40 15 -53 15 -20 14 -21 0
-16 -13 5 -15 0 -14 -27 1 -36 -20 -181 -28 -189 -3 -3 -1 22 3 55 4 33 8 103
9 157 0 94 0 96 -20 85 -11 -6 -22 -10 -25 -9 -3 1 -18 -3 -35 -8 -16 -5 -46
-12 -65 -14 -19 -3 -36 -6 -37 -7 -6 -3 -87 -21 -100 -21 -22 0 -86 -43 -133
-88 -50 -48 -54 -55 -54 -99 0 -36 7 -56 28 -84 15 -20 29 -42 30 -49 1 -7 4
-17 7 -23 5 -9 5 -36 1 -73 -4 -30 -22 3 -22 39 0 46 -10 68 -45 103 -14 14
-25 30 -25 36 0 5 -4 10 -9 10 -13 0 -38 -65 -40 -107 -1 -7 -17 -30 -36 -50
-20 -21 -38 -47 -41 -59 -7 -27 -12 -56 -13 -72 -1 -14 -27 -25 -78 -35 -26
-5 -33 -3 -33 9 0 15 11 22 47 27 30 4 32 7 34 52 3 46 14 73 41 97 16 14 30
44 43 98 17 71 57 142 111 200 16 16 27 33 24 37 -3 3 -32 8 -65 10 -33 2 -76
5 -95 7 -25 2 -50 -5 -85 -25 -42 -23 -64 -28 -134 -30 -73 -3 -90 -7 -127
-32 -56 -37 -88 -34 -50 4 l26 26 -29 6 c-23 5 -30 12 -33 37 -7 49 9 61 108
75 21 4 58 20 81 36 24 17 43 27 43 23 0 -4 12 3 27 17 79 71 153 112 237 129
33 7 77 18 98 26 47 16 122 27 260 37 9 1 15 3 13 5 -2 2 35 23 83 47 48 23
125 65 171 94 88 53 125 67 201 75 48 4 106 23 98 32 -6 6 -38 12 -97 19 -24
3 -48 8 -52 11 -5 3 -19 7 -32 10 -12 2 -31 6 -42 8 -11 2 -56 9 -101 16 -77
13 -82 12 -110 -8 -16 -12 -38 -23 -49 -25 -11 -2 -33 -9 -50 -16 -16 -7 -43
-15 -60 -18 -54 -10 -84 -31 -93 -67 -11 -39 -39 -70 -67 -74 -20 -3 -53 -36
-88 -87 -24 -33 -33 -26 -19 14 12 35 12 35 -23 19 -19 -9 -28 -9 -37 0 -16
16 13 37 72 53 25 7 51 16 58 22 6 5 12 7 12 3 0 -4 12 0 26 7 23 12 53 69 54
101 0 8 -92 3 -152 -9 -16 -3 -39 -7 -53 -9 -13 -3 -40 -16 -58 -30 -19 -14
-37 -26 -41 -26 -8 0 -45 -36 -65 -62 -10 -14 -9 -24 7 -57 16 -33 17 -41 6
-41 -8 0 -14 -6 -14 -14 0 -8 -5 -18 -11 -21 -7 -5 -8 4 -4 28 7 38 -1 77 -16
77 -5 0 -22 -20 -37 -45 -15 -25 -34 -45 -42 -45 -10 0 -11 3 -3 8 6 4 15 20
19 36 7 30 124 152 155 161 24 8 25 25 2 20 -72 -15 -182 -48 -248 -74 -43
-16 -82 -28 -87 -25 -26 17 13 47 115 88 66 27 61 55 -17 96 -25 12 -53 30
-64 40 -10 9 -35 23 -55 29 -21 7 -35 16 -33 20 11 17 83 -6 105 -33 7 -9 20
-16 27 -16 8 0 14 -4 14 -10 0 -5 6 -10 14 -10 7 0 30 -16 50 -35 33 -30 42
-34 79 -30 23 2 80 7 127 10 82 5 101 7 163 21 15 3 66 7 112 9 79 4 135 20
150 45 6 10 -92 109 -110 111 -5 1 -28 0 -50 -2 -22 -1 -53 -3 -70 -4 -16 -1
-46 4 -67 11 -41 14 -49 13 -97 -8 -44 -20 -61 -13 -61 22 0 46 26 59 143 67
37 3 67 8 67 12 0 4 -22 24 -50 44 -48 36 -64 70 -43 91 13 13 12 41 -2 90
-21 69 -28 132 -20 172 7 38 27 44 47 15 7 -10 17 -18 22 -17 4 0 18 -24 30
-54 51 -132 82 -156 231 -176 28 -3 61 -12 75 -19 29 -16 187 -69 245 -83 22
-6 101 -13 175 -17 184 -9 214 -12 252 -24 18 -5 47 -12 65 -15 18 -2 54 -11
80 -19 26 -8 83 -22 127 -32 43 -9 126 -37 183 -61 84 -35 103 -40 99 -26 -3
9 -8 29 -11 43 -5 18 -19 32 -46 44 -24 11 -42 27 -45 41 -5 20 -24 33 -59 40
-25 4 -105 45 -131 67 -16 13 -48 29 -71 37 -24 7 -43 18 -43 23 0 19 85 -4
140 -37 37 -22 72 -35 105 -38 47 -4 51 -3 53 18 1 15 -5 25 -19 29 -23 8 -20
31 5 29 9 -1 16 4 16 12 0 8 5 14 11 14 7 0 9 -10 7 -24 -4 -21 0 -25 29 -31
19 -3 42 -14 52 -23 10 -9 34 -32 53 -50 l35 -33 18 27 c14 22 15 30 4 53 -26
54 -29 84 -7 89 12 2 19 -5 24 -22 3 -14 12 -30 20 -37 11 -9 21 3 50 66 21
42 42 78 48 80 6 2 28 6 49 9 28 3 37 1 37 -10 0 -15 -1 -15 -39 -19 -33 -3
-51 -30 -44 -69 3 -23 -2 -45 -21 -78 -14 -25 -27 -58 -30 -73 -3 -16 -10 -33
-16 -39 -14 -14 -13 -29 2 -24 7 3 26 -8 43 -24 23 -22 40 -28 75 -29 25 0 54
-2 65 -4 11 -2 53 -5 93 -6 42 -1 84 -8 100 -17 39 -21 120 -32 126 -16 3 7
20 20 38 29 48 23 63 36 81 71 15 30 15 32 -7 53 -16 15 -22 32 -22 56 1 37
18 44 24 10 5 -34 19 -38 50 -15 33 25 63 19 37 -6 -20 -20 -20 -64 0 -64 21
0 19 -19 -2 -27 -22 -8 -115 -105 -108 -112 3 -2 128 -4 277 -3 l272 2 26 29
c14 16 36 43 50 60 16 20 37 33 60 37 19 3 69 14 110 24 41 11 89 22 105 25
17 3 41 7 55 10 14 2 63 11 110 19 47 8 109 20 139 26 29 5 55 10 56 10 2 0 5
10 8 22 4 12 9 19 13 15 4 -4 13 -2 21 4 7 6 13 9 13 7 0 -3 16 10 36 29 49
46 67 107 59 201 -8 86 4 125 43 142 53 22 102 82 102 124 0 8 12 24 27 36 15
11 35 35 46 53 11 18 29 38 40 46 20 14 20 15 1 22 -27 11 -42 10 -49 -1z
m-3498 -1945 c0 -8 -4 -12 -9 -9 -4 3 -8 9 -8 15 0 5 4 9 8 9 5 0 9 -7 9 -15z
m-10 -47 c-3 -8 -6 -5 -6 6 -1 11 2 17 5 13 3 -3 4 -12 1 -19z m868 -499 c-8
-42 -32 -99 -52 -121 -17 -19 -53 -25 -53 -8 0 5 6 7 14 4 18 -7 61 57 71 106
8 37 13 50 21 50 2 0 2 -14 -1 -31z m2076 -2926 c12 -15 12 -16 -4 -10 -10 4
-25 7 -33 7 -9 0 -12 5 -9 10 9 15 31 12 46 -7z m-46 -33 c-5 -14 -2 -20 9
-20 24 0 19 -17 -10 -36 -22 -15 -27 -15 -35 -3 -12 19 -11 36 1 60 15 26 43
26 35 -1z m-40 -130 c-3 -5 -13 -10 -21 -10 -8 0 -14 -10 -14 -25 0 -27 -14
-34 -23 -11 -8 20 21 56 44 56 11 0 17 -4 14 -10z"/>
<path d="M6125 7340 c-101 -9 -135 -24 -174 -75 -18 -25 -37 -45 -41 -45 -22
0 -58 -49 -64 -87 -5 -38 -4 -43 13 -43 11 0 21 6 24 13 2 7 23 12 56 12 41 0
56 -4 67 -19 19 -27 18 -33 -13 -59 -15 -12 -46 -39 -69 -59 -22 -21 -47 -38
-53 -38 -16 0 -61 -30 -61 -41 0 -5 3 -8 8 -7 4 2 23 -10 43 -25 21 -16 43
-25 52 -21 23 9 64 -23 70 -56 7 -31 26 -41 78 -40 173 5 219 4 219 -5 0 -10
-4 -11 -35 -14 -23 -2 -18 -16 13 -31 42 -22 62 -41 62 -62 0 -24 -12 -23 -35
2 -10 11 -23 20 -28 20 -6 0 -32 14 -58 31 -36 23 -56 29 -79 25 -18 -2 -34
-7 -37 -10 -5 -4 31 -39 91 -88 12 -10 27 -22 34 -28 6 -6 12 -26 12 -45 0
-24 6 -37 20 -45 11 -6 20 -15 20 -21 0 -5 -14 -2 -31 7 -23 11 -30 21 -26 35
4 14 -3 24 -24 35 -29 15 -31 14 -58 -15 -44 -47 -90 -25 -61 30 6 10 20 19
30 19 26 0 25 8 -2 31 -26 23 -27 23 -49 3 -23 -21 -35 -12 -43 30 -4 20 -14
37 -24 40 -10 3 -31 18 -48 33 -16 16 -33 28 -37 28 -4 0 -30 20 -58 44 -49
42 -54 44 -123 46 -39 1 -83 6 -97 12 -27 12 -79 5 -171 -22 -71 -20 -114 -48
-137 -87 -11 -18 -25 -38 -30 -45 -6 -7 -11 -16 -11 -20 -1 -4 -10 -19 -21
-32 -15 -18 -32 -25 -72 -29 -40 -3 -59 -11 -83 -33 -17 -16 -34 -26 -39 -22
-4 5 -5 3 -2 -3 4 -6 -4 -20 -18 -30 -13 -10 -22 -20 -20 -24 5 -8 330 -4 380
4 55 9 153 57 192 94 73 68 106 73 172 24 63 -46 242 -234 289 -304 30 -44
108 -127 121 -129 3 0 29 -2 56 -4 28 -2 74 -7 103 -11 35 -4 57 -2 67 6 20
17 9 30 -24 30 -41 0 -147 56 -192 102 -21 22 -37 43 -34 47 2 5 -6 13 -18 18
-27 13 -52 56 -44 77 3 8 15 19 26 25 16 9 27 5 63 -22 40 -30 49 -33 120 -34
76 -1 77 -1 68 21 -7 18 0 40 31 100 l40 76 -17 63 c-34 128 -31 123 -71 125
-42 3 -99 33 -95 51 1 6 -4 11 -10 12 -7 0 -22 3 -33 5 -11 2 -29 5 -40 5 -11
1 -37 6 -58 11 -71 17 -73 106 -2 112 12 1 35 107 26 121 -3 6 -6 29 -7 53 -1
40 1 44 33 57 20 8 43 15 52 15 9 0 71 -28 136 -61 73 -38 136 -63 160 -65
100 -8 108 -10 202 -50 45 -20 97 -17 153 9 37 16 50 27 50 44 0 22 19 47 42
56 10 4 10 7 0 18 -12 12 -142 23 -142 12 0 -3 5 -13 10 -24 6 -10 7 -19 3
-20 -4 0 -29 -3 -54 -5 -42 -5 -120 10 -171 31 -13 5 -18 2 -18 -9 0 -24 -28
-19 -58 12 -42 41 -67 52 -116 52 -53 0 -87 12 -113 38 -32 35 -82 48 -158 42z"/>
<path d="M4923 6608 c-13 -16 -23 -58 -15 -58 14 0 112 54 112 62 0 13 -87 9
-97 -4z"/>
<path d="M4838 6594 c-4 -3 -12 -7 -20 -8 -81 -16 -297 -107 -347 -148 l-26
-21 40 6 c62 9 96 17 145 32 45 13 87 22 157 31 42 5 64 25 81 73 7 19 12 36
12 37 0 6 -36 4 -42 -2z"/>
<path d="M2885 6303 c-11 -2 -30 -6 -42 -9 -38 -8 -35 -30 40 -264 17 -52 30
-100 30 -107 0 -7 4 -13 9 -13 4 0 8 -5 8 -11 0 -23 72 -160 101 -194 52 -59
149 -78 231 -46 24 9 27 13 18 36 -12 32 -47 206 -54 271 -3 27 -8 65 -11 84
-2 19 -7 55 -10 80 -8 57 -15 104 -18 106 -3 3 -69 16 -95 18 -13 2 -27 7 -30
12 -19 26 -124 49 -177 37z m97 -58 c13 -3 24 -9 26 -15 2 -6 8 -8 13 -4 5 3
9 -10 10 -28 2 -67 0 -184 -4 -223 -3 -22 -5 -46 -6 -52 -1 -7 -9 -13 -18 -13
-34 0 -84 125 -98 240 -2 19 -7 45 -10 57 -5 16 -1 24 22 35 15 8 31 13 35 11
5 -2 18 -6 30 -8z"/>
<path d="M5671 6269 c-17 -7 -21 -14 -16 -27 4 -9 11 -28 15 -42 51 -161 151
-241 245 -198 31 14 31 20 0 54 -14 15 -25 31 -25 35 0 5 -12 20 -27 34 -15
14 -24 25 -20 25 5 0 -1 12 -12 26 -12 15 -21 32 -21 39 0 17 -72 65 -96 64
-10 0 -30 -5 -43 -10z"/>
<path d="M6526 6265 c-22 -23 -20 -34 8 -41 20 -5 24 -12 23 -37 -2 -29 -5
-32 -37 -33 -37 -2 -122 -24 -130 -35 -3 -4 -23 -16 -44 -27 -29 -16 -44 -19
-58 -11 -14 8 -26 4 -52 -16 -18 -14 -38 -25 -44 -25 -17 0 -15 -5 11 -45 13
-21 38 -41 62 -51 80 -32 102 -45 113 -69 10 -21 15 -23 42 -15 31 9 36 10 45
10 3 0 -5 11 -17 25 -12 14 -23 32 -24 40 -1 9 -12 26 -25 39 -12 13 -24 31
-25 40 -3 20 80 76 113 76 12 0 44 5 71 11 l50 10 0 57 c0 31 -6 61 -12 66
-51 47 -53 48 -70 31z"/>
<path d="M5609 6256 c-2 -2 -49 -6 -104 -9 -109 -6 -131 -11 -139 -33 -3 -8
-8 -65 -11 -127 -7 -142 -13 -177 -29 -177 -22 0 -27 12 -10 25 13 9 17 35 20
116 3 57 5 118 7 134 2 28 -1 30 -35 33 -37 3 -37 3 -41 -40 l-4 -43 -1 42 -2
43 -67 -5 c-38 -2 -115 -7 -173 -10 -132 -7 -136 -8 -304 -61 -104 -33 -147
-51 -166 -71 -79 -83 -99 -97 -138 -95 -31 2 -43 -4 -74 -33 -33 -33 -37 -42
-43 -110 -7 -69 -2 -209 11 -335 3 -30 21 -103 40 -163 25 -80 34 -127 34
-178 0 -49 4 -69 13 -69 6 1 35 23 62 50 l50 50 0 97 c1 266 6 348 24 368 22
25 41 89 34 115 -8 31 25 110 43 103 10 -3 16 4 20 26 5 25 12 31 32 31 22 0
24 -3 19 -28 -7 -33 -48 -122 -78 -169 -17 -27 -35 -93 -25 -93 2 0 17 7 33
15 22 11 30 21 26 33 -6 24 21 46 44 37 16 -6 16 -8 -4 -16 -13 -4 -23 -16
-23 -25 0 -13 8 -15 53 -9 28 4 57 12 64 17 13 10 48 117 44 133 -15 58 -3
111 26 123 10 4 19 18 21 32 1 13 11 33 21 45 11 11 21 29 23 40 2 14 13 21
33 23 17 2 38 11 47 19 16 14 17 13 9 -14 -14 -48 -41 -93 -55 -93 -20 0 -40
-27 -26 -35 8 -5 8 -11 -1 -21 -14 -16 -5 -29 19 -29 22 0 28 -42 9 -63 -20
-23 -77 -146 -77 -166 0 -24 12 -20 53 19 25 24 46 35 67 35 23 0 30 4 30 20
0 13 10 24 25 30 20 8 25 16 25 45 0 50 25 94 54 95 4 0 5 -17 1 -37 -4 -21
-8 -57 -10 -79 -3 -41 -2 -42 24 -33 14 4 50 15 80 25 29 9 74 29 100 44 25
15 58 31 74 34 44 10 33 -18 -18 -44 -25 -13 -45 -29 -45 -35 0 -7 -30 -20
-66 -29 -37 -9 -83 -25 -103 -35 -20 -10 -66 -28 -103 -39 -36 -12 -89 -37
-116 -56 -36 -26 -60 -36 -87 -36 -22 0 -46 -7 -57 -17 -13 -11 -33 -16 -67
-14 l-49 2 -11 -88 c-7 -48 -17 -112 -22 -141 -6 -29 -7 -67 -3 -85 16 -74 0
-114 -73 -181 -26 -24 -35 -41 -38 -71 -1 -22 -3 -44 -4 -49 -1 -5 -24 -30
-52 -56 -59 -54 -70 -86 -76 -211 -3 -57 0 -96 9 -116 l13 -31 48 54 48 53
-14 48 c-8 26 -16 50 -17 53 -1 3 12 29 29 59 18 30 47 84 66 120 19 36 45 79
59 95 14 16 26 34 26 40 0 17 48 68 54 58 7 -12 -31 -100 -52 -121 -14 -15
-55 -98 -51 -103 1 -2 -14 -34 -34 -71 -33 -62 -38 -91 -22 -116 11 -19 65 46
83 99 20 60 57 95 68 66 4 -10 -1 -40 -10 -68 -9 -28 -16 -58 -16 -67 0 -36
-68 -120 -97 -121 -20 0 -70 -121 -77 -185 -11 -98 -17 -136 -25 -159 -5 -11
-6 -32 -3 -46 5 -28 7 -171 2 -243 -2 -26 0 -50 3 -53 5 -5 70 19 85 31 1 1
-4 14 -11 28 -9 17 -13 51 -11 89 4 110 15 242 20 250 3 4 10 36 15 70 6 34
15 68 21 75 6 7 7 13 2 13 -19 0 22 20 43 20 16 0 23 8 28 31 4 18 26 73 50
123 37 80 80 213 77 241 -1 6 -3 38 -6 72 -4 53 -9 66 -32 87 -26 22 -28 29
-26 89 1 35 9 87 18 113 9 27 18 61 19 75 1 14 7 35 14 47 9 16 9 26 -1 41
-15 25 5 53 36 50 51 -4 76 2 76 16 0 8 4 15 8 15 5 0 17 9 29 19 34 32 163
90 273 122 58 17 110 32 115 33 6 2 29 7 53 11 28 5 46 15 54 29 13 26 59 65
76 66 10 0 12 19 8 85 -5 76 -3 88 15 106 12 12 28 17 42 14 12 -2 40 -7 62
-9 57 -6 182 -36 221 -52 43 -18 104 -18 130 0 17 13 24 12 51 0 17 -9 35 -25
40 -37 8 -16 29 -27 76 -41 37 -10 71 -24 77 -31 19 -23 46 -23 96 0 45 20 47
23 27 33 -11 6 -41 16 -67 22 -51 11 -116 48 -116 66 0 22 -37 46 -57 36 -24
-12 -94 -8 -131 7 -25 11 -35 10 -62 -4 -64 -33 -132 -16 -185 47 -33 39 -83
140 -91 186 -5 28 -21 41 -35 28z m-356 -183 c-12 -35 -13 -50 -5 -64 10 -15
9 -17 -3 -13 -8 4 -15 12 -15 20 0 25 24 104 31 104 4 0 1 -21 -8 -47z m32
-113 c10 -11 16 -20 13 -20 -3 0 -13 9 -23 20 -10 11 -16 20 -13 20 3 0 13 -9
23 -20z"/>
<path d="M3237 6199 c-17 -19 -18 -58 -3 -135 2 -12 7 -45 11 -75 3 -30 8 -61
10 -69 2 -8 7 -33 10 -55 3 -23 7 -50 10 -60 25 -110 34 -126 55 -100 7 8 17
15 22 15 5 0 -3 -10 -18 -23 l-26 -23 26 -52 c14 -29 31 -52 36 -52 6 0 9 3 8
8 -1 4 2 37 6 74 9 75 8 84 -14 81 -10 -1 -9 3 5 13 17 13 20 27 21 105 1 65
-3 94 -13 104 -16 17 -63 120 -87 192 -22 66 -37 79 -59 52z"/>
<path d="M5910 6097 c0 -15 45 -57 60 -57 6 0 10 -4 10 -9 0 -19 105 -37 115
-21 4 6 -166 100 -181 100 -2 0 -4 -6 -4 -13z"/>
<path d="M3450 5985 c14 -37 52 -85 67 -85 7 0 10 -6 8 -12 -6 -17 10 -42 23
-34 11 7 22 66 11 66 -3 0 -9 8 -11 18 -3 10 -21 26 -41 35 -20 10 -39 22 -42
27 -13 21 -24 9 -15 -15z"/>
<path d="M3575 5865 c-16 -76 -16 -87 -2 -108 18 -28 86 -35 89 -8 7 72 3 109
-16 141 -20 35 -41 60 -49 60 -2 0 -12 -38 -22 -85z"/>
<path d="M3519 5670 c-1 -5 -2 -16 -3 -22 -3 -21 16 -69 45 -118 16 -25 31
-58 33 -75 13 -72 19 -87 39 -94 12 -5 27 -6 33 -4 14 5 7 78 -12 114 -7 14
-12 34 -10 43 1 10 -5 46 -14 79 -15 55 -19 61 -46 64 -16 3 -33 8 -38 14 -13
12 -26 12 -27 -1z"/>
<path d="M5779 5538 c0 -2 -1 -20 -3 -41 -5 -66 -47 -89 -106 -57 -16 8 -50
10 -114 5 -50 -3 -126 -8 -169 -10 -43 -2 -95 -7 -117 -10 -40 -6 -80 15 -80
41 0 34 -73 14 -108 -30 -17 -22 -19 -32 -10 -59 5 -18 12 -42 15 -54 3 -12
17 -30 32 -39 14 -10 42 -33 61 -51 19 -18 38 -33 42 -33 3 0 20 -24 36 -54
24 -42 37 -55 61 -59 17 -4 31 -12 31 -18 0 -6 11 -22 24 -34 20 -19 23 -31
24 -96 0 -41 3 -253 6 -471 4 -266 3 -399 -4 -403 -5 -3 -10 -18 -10 -32 0
-15 -9 -46 -21 -69 -17 -37 -25 -43 -60 -49 -27 -5 -47 -2 -62 7 -12 8 -49 25
-82 38 -33 13 -62 26 -65 29 -18 21 -64 35 -120 36 -74 2 -107 10 -133 33 -14
12 -41 16 -113 17 -56 0 -94 -4 -95 -10 -1 -11 -5 -31 -14 -60 -5 -17 -1 -20
31 -23 39 -2 70 -18 106 -54 15 -15 26 -18 46 -13 15 4 63 9 107 10 64 2 96
-3 160 -24 44 -15 89 -32 100 -38 77 -43 159 -82 210 -103 33 -13 65 -27 72
-32 23 -18 31 2 27 65 -2 34 -5 359 -7 722 -1 478 -5 666 -14 680 -23 41 -66
67 -141 86 -87 22 -112 43 -84 69 36 33 100 50 192 50 88 0 116 -6 226 -51 28
-11 35 -9 100 29 105 61 110 61 211 7 87 -46 129 -62 118 -45 -3 4 16 19 42
31 38 19 69 24 148 27 111 5 166 -6 209 -41 27 -22 27 -24 12 -40 -10 -9 -50
-27 -89 -38 -87 -26 -125 -52 -141 -93 -20 -49 -15 -903 4 -933 17 -26 40 -31
40 -9 0 8 4 17 9 20 5 3 8 -5 7 -19 0 -14 -6 -25 -13 -25 -8 0 -5 -13 8 -38
18 -33 19 -44 9 -80 -7 -29 -16 -42 -28 -42 -21 0 -47 -38 -43 -65 2 -10 20
-36 41 -56 l38 -37 -18 -67 c-10 -37 -23 -72 -29 -78 -6 -6 -11 -23 -11 -38 0
-42 -10 -59 -36 -59 -18 0 -25 -7 -32 -32 -10 -37 -7 -48 12 -48 8 0 16 13 19
29 5 24 10 28 32 25 35 -3 39 -8 26 -32 -6 -10 -8 -31 -6 -44 3 -14 -1 -44 -9
-66 -9 -23 -11 -43 -5 -49 5 -5 1 -30 -11 -61 -11 -29 -20 -63 -20 -77 0 -25
-26 -46 -47 -38 -18 6 -16 -16 1 -23 8 -3 12 -12 10 -19 -3 -7 -1 -16 5 -20
17 -10 13 -22 -9 -28 -13 -3 -18 -10 -14 -21 5 -12 2 -15 -11 -9 -12 4 -23 0
-31 -12 -21 -28 -17 -38 11 -33 14 3 30 -1 36 -8 6 -8 9 -14 6 -14 -3 0 -1
-14 5 -30 7 -22 7 -34 -2 -45 -9 -11 -9 -18 4 -31 9 -9 14 -25 11 -35 -3 -10
-7 -28 -11 -38 -3 -11 -15 -23 -27 -26 -43 -13 -77 -30 -78 -40 -13 -127 -1
-165 50 -157 22 3 32 -1 40 -17 6 -11 11 -24 10 -28 -4 -22 3 -31 21 -26 21 6
22 5 24 -44 l2 -33 -52 0 c-40 0 -56 -4 -63 -17 -6 -10 -11 -13 -11 -8 0 6 -4
5 -8 -2 -4 -7 -24 -13 -45 -15 -47 -3 -52 -19 -26 -76 12 -26 23 -41 26 -34 3
6 18 12 34 12 30 0 69 30 69 54 0 9 7 12 20 9 16 -4 20 -14 20 -48 0 -51 -19
-74 -53 -68 -17 4 -28 -2 -41 -22 -19 -28 -14 -47 6 -27 15 15 61 15 76 0 25
-25 12 -56 -38 -91 -10 -7 -22 -25 -25 -40 -6 -23 -4 -27 15 -27 23 0 55 30
71 69 9 23 24 22 24 -2 0 -7 5 -12 10 -12 50 -3 70 -32 56 -81 -8 -29 -6 -32
23 -42 19 -7 38 -26 51 -49 13 -26 28 -39 45 -41 13 -2 33 -10 44 -18 11 -8
29 -14 39 -14 9 0 34 -7 54 -15 l37 -16 -24 -22 c-14 -13 -34 -22 -45 -20 -12
3 -25 -4 -32 -16 -12 -19 -10 -20 35 -19 26 1 68 -2 93 -6 65 -10 175 18 196
51 15 22 14 26 -12 63 -15 22 -44 47 -65 56 -22 10 -44 30 -55 50 -17 32 -80
84 -102 84 -5 0 -31 21 -56 47 -25 27 -52 54 -61 61 -9 7 -19 25 -22 40 -4 15
-22 47 -41 71 -30 40 -32 46 -19 65 7 12 22 23 32 25 44 8 54 69 19 115 -14
18 -25 44 -25 58 0 14 -7 32 -17 39 -42 36 -45 126 -8 217 14 32 14 37 -2 55
-21 23 -23 98 -3 122 7 8 10 15 6 15 -4 0 0 12 7 27 12 21 12 34 2 67 -7 23
-11 50 -9 61 2 11 -7 30 -19 43 -17 18 -22 36 -22 76 0 45 5 57 39 100 42 50
57 107 27 99 -57 -13 -85 110 -46 202 23 57 26 87 9 106 -17 19 -14 143 6 193
6 16 13 45 16 65 2 20 7 47 10 61 2 14 6 36 9 50 3 14 13 36 24 50 18 26 18
26 -10 55 -16 15 -29 33 -30 39 -2 35 -10 53 -28 65 -16 10 -21 24 -21 62 0
26 -4 51 -10 54 -5 3 -9 16 -8 29 1 12 -3 35 -9 52 -6 16 -14 46 -18 66 -3 20
-11 38 -17 40 -14 5 -14 46 1 168 20 167 28 201 53 217 7 4 22 25 33 46 26 50
72 84 132 98 l49 12 -4 60 c-6 81 -46 158 -87 169 -47 13 -104 17 -107 7 -5
-14 -119 -39 -203 -43 -44 -3 -90 -8 -103 -11 -13 -4 -28 -2 -37 5 -8 7 -22 9
-31 6 -30 -12 -65 5 -71 34 -6 35 -39 50 -103 50 -28 0 -50 -1 -51 -2z m513
-2330 c-16 -16 -35 3 -26 26 6 16 8 16 22 2 13 -12 14 -18 4 -28z m-2 -68 c0
-5 -4 -10 -9 -10 -6 0 -13 5 -16 10 -3 6 1 10 9 10 9 0 16 -4 16 -10z m-6 -49
c9 -14 -4 -41 -20 -41 -8 0 -14 8 -14 18 0 29 22 43 34 23z m-1 -300 c17 -17
1 -56 -30 -77 -28 -18 -37 -20 -67 -10 -29 9 -35 16 -38 43 -3 28 -1 33 17 33
12 0 30 6 40 14 19 14 63 12 78 -3z m76 -292 c9 -25 7 -31 -12 -43 -12 -8 -36
-17 -53 -21 -26 -5 -32 -3 -37 15 -5 21 27 49 37 31 3 -4 17 -6 31 -3 29 5 31
38 2 36 -17 -2 -22 7 -11 19 12 11 33 -5 43 -34z m-41 -118 c1 -1 -2 -10 -8
-21 -14 -26 -50 -27 -50 -2 0 30 13 35 58 23z m-10 -146 c-3 -30 -22 -28 -26
3 -2 15 2 22 12 22 11 0 15 -8 14 -25z m30 -10 c-3 -3 -9 2 -12 12 -6 14 -5
15 5 6 7 -7 10 -15 7 -18z m124 -68 c7 -7 21 -16 31 -20 10 -4 17 -13 14 -20
-2 -6 4 -23 14 -36 25 -31 24 -46 0 -22 -10 10 -25 21 -32 24 -11 3 -11 7 -2
18 10 10 6 16 -18 31 -26 16 -33 17 -50 4 -20 -14 -20 -14 5 -39 14 -14 39
-34 56 -43 28 -17 39 -34 22 -34 -13 0 -75 34 -110 60 -43 32 -40 61 8 77 45
15 46 15 62 0z"/>
<path d="M6258 4224 c-8 -13 -3 -54 9 -84 6 -14 12 -34 14 -44 6 -29 29 -32
29 -4 0 13 5 29 11 35 9 9 8 20 -4 45 -9 18 -17 29 -17 24 0 -4 -8 2 -18 15
-11 12 -21 18 -24 13z"/>
<path d="M6259 3918 c-5 -14 -4 -120 2 -124 7 -4 19 23 25 52 1 6 5 20 8 30 4
13 -1 23 -14 32 -11 7 -20 11 -21 10z"/>
<path d="M4547 3883 c-37 -14 -67 -31 -68 -39 -5 -94 0 -100 51 -64 14 10 58
36 97 57 53 29 69 42 63 52 -13 23 -71 20 -143 -6z"/>
<path d="M5554 3760 c-34 -13 -20 -56 22 -70 37 -12 64 -8 64 10 0 6 -10 8
-26 4 -25 -6 -26 -5 -21 18 8 32 -10 49 -39 38z"/>
<path d="M4938 3643 c-31 -20 -35 -35 -13 -53 14 -12 43 -15 75 -7 45 11 106
31 114 38 13 11 -29 26 -95 33 -42 5 -60 3 -81 -11z"/>
<path d="M5430 3631 c0 -10 24 -21 43 -21 7 0 3 7 -7 15 -22 17 -36 19 -36 6z"/>
<path d="M5150 3610 c0 -6 7 -10 15 -10 8 0 15 2 15 4 0 2 -7 6 -15 10 -8 3
-15 1 -15 -4z"/>
<path d="M5500 3595 c-11 -13 -9 -19 12 -38 72 -64 120 -64 96 1 -8 20 -21 33
-37 37 -15 3 -33 8 -42 11 -9 2 -22 -2 -29 -11z"/>
<path d="M6211 3531 c-26 -36 -26 -36 3 -39 17 -1 25 5 30 21 14 54 -1 63 -33
18z"/>
<path d="M4533 3497 c-17 -7 -50 -27 -72 -45 -33 -28 -42 -44 -51 -88 -22
-107 -12 -108 66 -4 118 158 119 160 57 137z"/>
<path d="M5570 3401 c0 -6 7 -14 15 -17 8 -4 12 -11 8 -18 -3 -6 -3 -8 1 -4 5
4 25 -4 46 -17 33 -21 39 -22 44 -8 7 19 -16 59 -36 61 -7 1 -28 5 -45 8 -22
4 -33 2 -33 -5z"/>
<path d="M6173 3379 c-2 -26 19 -34 48 -18 22 11 22 12 4 25 -27 20 -51 17
-52 -7z"/>
<path d="M5530 3331 c20 -41 67 -84 80 -76 5 3 11 1 15 -5 7 -11 48 -14 58 -4
9 9 -3 34 -17 34 -6 0 -41 20 -78 45 -37 25 -70 45 -73 45 -3 0 4 -18 15 -39z"/>
<path d="M5745 3150 c-11 -17 5 -32 21 -19 7 6 11 15 8 20 -7 12 -21 11 -29
-1z"/>
<path d="M5613 3124 c-12 -13 -33 -24 -47 -24 -28 0 -45 -35 -27 -53 8 -8 16
-7 27 5 15 15 22 15 63 2 61 -18 71 -18 71 5 0 20 -40 83 -55 87 -5 1 -20 -9
-32 -22z"/>
<path d="M5992 2991 c4 -13 18 -16 19 -4 0 4 -5 9 -11 12 -7 2 -11 -2 -8 -8z"/>
<path d="M5660 2960 c0 -10 -5 -29 -11 -42 -11 -25 -67 -68 -87 -68 -13 0 -15
-10 -6 -34 7 -18 30 -22 36 -6 6 19 60 21 101 5 28 -11 43 -13 50 -6 6 6 8 11
4 11 -4 0 -3 9 3 21 10 17 6 25 -24 54 -23 22 -36 43 -36 59 0 16 -6 26 -15
26 -8 0 -15 -9 -15 -20z"/>
<path d="M6116 2953 c-10 -10 -7 -53 4 -53 18 0 29 34 15 47 -7 6 -16 9 -19 6z"/>
<path d="M3529 2453 c-2 -54 -46 -313 -59 -348 -11 -29 0 -33 23 -7 38 42 49
94 51 230 1 73 -1 135 -6 138 -4 3 -8 -3 -9 -13z"/>
<path d="M6030 2340 c-8 -5 -12 -12 -9 -15 4 -3 12 1 19 10 14 17 11 19 -10 5z"/>
<path d="M5827 2296 c-26 -28 -41 -85 -26 -100 6 -6 19 -2 36 11 22 15 28 29
28 57 1 55 -9 63 -38 32z"/>
<path d="M5653 2030 c-33 -14 -28 -27 10 -24 17 1 41 3 52 3 20 2 20 2 1 16
-22 17 -32 18 -63 5z"/>
<path d="M5437 1995 c-16 -20 -33 -32 -39 -29 -6 4 -8 3 -4 -4 3 -6 2 -13 -4
-17 -20 -13 -9 -20 34 -22 44 -1 44 -1 49 35 2 20 1 45 -2 54 -5 15 -11 12
-34 -17z"/>
<path d="M5197 1956 l-22 -21 40 -3 c24 -2 47 -12 59 -24 18 -20 18 -20 30 4
8 16 9 30 1 46 -8 18 -17 22 -48 20 -22 -1 -47 -11 -60 -22z"/>
<path d="M6113 1943 c-15 -6 -17 -53 -3 -53 9 0 30 40 30 56 0 5 -11 4 -27 -3z"/>
<path d="M5707 1912 c-11 -2 -27 -12 -38 -23 -20 -20 -59 -26 -59 -9 0 6 -12
4 -28 -4 -29 -15 -65 -20 -192 -31 -72 -6 -86 -8 -147 -24 -27 -8 -49 -8 -67
-1 -18 7 -35 5 -60 -5 -20 -8 -51 -15 -71 -15 -19 0 -44 -5 -54 -12 -27 -17
-51 -3 -51 29 l0 27 -20 -20 c-17 -16 -19 -25 -11 -46 8 -22 17 -26 68 -31 32
-3 77 -14 98 -23 53 -22 117 -20 189 5 33 12 62 19 64 16 3 -3 10 -1 16 4 6 5
52 19 101 32 72 18 118 23 225 24 182 0 246 -10 279 -43 36 -37 199 -75 194
-45 -3 12 51 59 60 52 2 -2 10 1 18 7 18 15 165 49 226 53 7 1 11 7 9 14 -15
50 -14 49 -39 33 -12 -9 -36 -16 -52 -18 -37 -2 -134 12 -139 21 -3 3 -25 5
-49 3 -45 -4 -45 -4 -40 -36 7 -47 -22 -78 -78 -82 -63 -4 -73 5 -73 69 0 54
0 55 -23 46 -15 -6 -23 -5 -23 3 0 15 -31 37 -53 38 -14 0 -15 -3 -5 -19 7
-11 16 -17 20 -15 4 3 8 0 8 -5 0 -14 -23 -14 -37 0 -8 8 -19 6 -40 -5 -16 -8
-38 -13 -49 -11 -10 2 -23 4 -27 4 -5 1 -6 9 -2 20 6 20 -15 30 -48 23z"/>
<path d="M5813 1913 c-21 -8 -15 -22 7 -16 11 3 20 9 20 14 0 10 -8 10 -27 2z"/>
<path d="M6030 1880 c-22 -22 -26 -60 -8 -78 21 -21 76 -15 89 10 10 18 8 24
-14 40 -15 11 -24 25 -20 33 8 22 -24 18 -47 -5z"/>
</g>
</svg>
